<?xml version="1.0" standalone="no"?><!DOCTYPE svg PUBLIC "-//W3C//DTD SVG 1.1//EN" "http://www.w3.org/Graphics/SVG/1.1/DTD/svg11.dtd"><svg t="1594629255558" class="icon" viewBox="0 0 1024 1024" version="1.1" xmlns="http://www.w3.org/2000/svg" p-id="1047" xmlns:xlink="http://www.w3.org/1999/xlink" width="200" height="200"><defs><style type="text/css"></style></defs><path d="M512 471m-238 0a238 238 0 1 0 476 0 238 238 0 1 0-476 0Z" p-id="1048"></path><path d="M345 792m24.5 0l286 0q24.5 0 24.5 24.5l0 0q0 24.5-24.5 24.5l-286 0q-24.5 0-24.5-24.5l0 0q0-24.5 24.5-24.5Z" p-id="1049"></path><path d="M396 907m24.5 0l184 0q24.5 0 24.5 24.5l0 0q0 24.5-24.5 24.5l-184 0q-24.5 0-24.5-24.5l0 0q0-24.5 24.5-24.5Z" p-id="1050"></path><path d="M487 69m24.5 0l0 0q24.5 0 24.5 24.5l0 49q0 24.5-24.5 24.5l0 0q-24.5 0-24.5-24.5l0-49q0-24.5 24.5-24.5Z" p-id="1051"></path><path d="M782.824116 173.027652m17.324116 17.324116l0 0q17.324116 17.324116 0 34.648232l-34.648232 34.648232q-17.324116 17.324116-34.648232 0l0 0q-17.324116-17.324116 0-34.648232l34.648232-34.648232q17.324116-17.324116 34.648232 0Z" p-id="1052"></path><path d="M244.176189 170.027525m-17.324116 17.324116l0 0q-17.324116 17.324116 0 34.648233l34.648232 34.648232q17.324116 17.324116 34.648233 0l0 0q17.324116-17.324116 0-34.648232l-34.648233-34.648233q-17.324116-17.324116-34.648232 0Z" p-id="1053"></path><path d="M915.5 446.5m0 24.5l0 0q0 24.5-24.5 24.5l-49 0q-24.5 0-24.5-24.5l0 0q0-24.5 24.5-24.5l49 0q24.5 0 24.5 24.5Z"  p-id="1054"></path><path d="M207.5 446.5m0 24.5l0 0q0 24.5-24.5 24.5l-49 0q-24.5 0-24.5-24.5l0 0q0-24.5 24.5-24.5l49 0q24.5 0 24.5 24.5Z"  p-id="1055"></path></svg>
